<svg width="48" height="48" viewBox="0 0 48 48" fill="none" xmlns="http://www.w3.org/2000/svg">
<path d="M24 0.620117C11.09 0.620117 0.620117 11.09 0.620117 24C0.620117 36.91 11.09 47.3799 24 47.3799C36.91 47.3799 47.3799 36.91 47.3799 24C47.3799 11.09 36.91 0.620117 24 0.620117ZM24 42.7002C13.67 42.7002 5.30005 34.33 5.30005 24C5.30005 19.67 6.77 15.7 9.25 12.54L35.46 38.75C32.3 41.23 28.33 42.7002 24 42.7002ZM38.75 35.46L12.54 9.25C15.7 6.77 19.67 5.2998 24 5.2998C34.33 5.2998 42.7 13.67 42.7 24C42.7 28.32 41.23 32.3 38.75 35.46Z" fill="#B0228C"/>
</svg>
